<svg width="367" height="118" xmlns="http://www.w3.org/2000/svg" xml:space="preserve" version="1.1">

 <g>
  <title>Layer 1</title>
  <g id="svg_13">
   <path id="svg_2" fill="#FFFFFF" d="m-0.1,83.96l37.62,-40.79l-35.71,0l0,-13.47l52.93,0c2.81,0 3.95,1.2 3.95,3.85l0,8.06l-37.88,41.27l40.69,0l0,13.35l-57.65,0c-2.81,0 -3.95,-1.2 -3.95,-3.85l0,-8.42z" class="st0"/>
   <path id="svg_3" fill="#FFFFFF" d="m65.69,83.12l21.68,0l0,-39.94l-18.75,0l0,-13.48l31.12,0c3.19,0 4.85,1.56 4.85,4.57l0,48.85l19,0l0,13.11l-57.9,0l0,-13.11zm38,-83.14l0,15.76l-17.6,0l0,-15.76l17.6,0z" class="st0"/>
   <path id="svg_4" fill="#FFFFFF" d="m164.4,85.29c-2.3,4.57 -9.05,8.18 -17.34,8.18c-15.94,0 -26.78,-11.91 -26.78,-30.08l0,-6.02c0,-17.93 10.71,-29.72 26.65,-29.72c8.54,0 14.79,3.61 17.47,8.06l0,-6.01l17.09,0l0,60.64c0,15.4 -12.63,27.31 -31.76,27.31l-19.9,0l0,-13.35l19.39,0c8.54,0 15.18,-4.57 15.18,-12.15l0,-6.86zm0,-28.04c0,-9.75 -5.61,-16.24 -13.65,-16.24s-13.52,5.77 -13.52,16l0,6.98c0,10.23 5.48,16.36 13.52,16.36s13.65,-6.98 13.65,-16.6l0,-6.5z" class="st0"/>
   <path id="svg_5" fill="#FFFFFF" d="m229.83,85.29c-2.3,4.57 -9.06,8.18 -17.34,8.18c-15.94,0 -26.78,-11.91 -26.78,-30.08l0,-6.02c0,-17.93 10.71,-29.72 26.65,-29.72c8.54,0 14.79,3.61 17.47,8.06l0,-6.01l17.09,0l0,60.64c0,15.4 -12.63,27.31 -31.76,27.31l-19.9,0l0,-13.35l19.39,0c8.54,0 15.18,-4.57 15.18,-12.15l0,-6.86zm0,-28.04c0,-9.75 -5.61,-16.24 -13.65,-16.24c-8.03,0 -13.52,5.77 -13.52,16l0,6.98c0,10.23 5.48,16.36 13.52,16.36c8.03,0 13.65,-6.98 13.65,-16.6l0,-6.5z" class="st0"/>
   <path id="svg_6" fill="#FFFFFF" d="m267.96,67.72c-0.13,10.71 5.48,16.96 14.67,16.96c7.4,0 12.37,-3.85 13.52,-9.02l16.71,0c-1.66,13.11 -14.03,22.5 -29.84,22.5c-20.66,0 -31.88,-12.39 -31.88,-30.92l0,-9.26c0,-17.21 11.35,-30.32 31.25,-30.32c19.51,0 30.86,13.11 30.86,31.16l0,8.9l-45.29,0zm0.13,-12.39l28.18,0c-0.25,-7.94 -4.85,-14.44 -13.9,-14.44c-8.54,0 -14.15,5.3 -14.28,14.44z" class="st0"/>
   <path id="svg_7" fill="#FFFFFF" d="m367.57,45.46c-3.19,-1.2 -8.8,-2.41 -13.26,-2.41c-12.63,0 -19.38,6.74 -19.38,19.73l0,33.45l-16.96,0l0,-66.53l16.96,0l0,9.38c3.95,-6.38 11.35,-11.19 20.79,-11.19c5.48,0 9.05,0.36 11.86,1.44l0,16.13l-0.01,0z" class="st0"/>
  </g>
 </g>
</svg>